<?xml version="1.0" encoding="UTF-8" standalone="no"?>
<svg
   xmlns:dc="http://purl.org/dc/elements/1.1/"
   xmlns:cc="http://creativecommons.org/ns#"
   xmlns:rdf="http://www.w3.org/1999/02/22-rdf-syntax-ns#"
   xmlns:svg="http://www.w3.org/2000/svg"
   xmlns="http://www.w3.org/2000/svg"
   xmlns:sodipodi="http://sodipodi.sourceforge.net/DTD/sodipodi-0.dtd"
   xmlns:inkscape="http://www.inkscape.org/namespaces/inkscape"
   viewBox="0 0 32 32"
   version="1.1"
   id="svg4"
   sodipodi:docname="CodeShare-Logo.svg"
   inkscape:version="1.0.1 (3bc2e813f5, 2020-09-07)">
  <title
     id="title835">CodeShare-Logo</title>
  <metadata
     id="metadata10">
    <rdf:RDF>
      <cc:Work
         rdf:about="">
        <dc:format>image/svg+xml</dc:format>
        <dc:type
           rdf:resource="http://purl.org/dc/dcmitype/StillImage" />
        <dc:title>CodeShare-Logo</dc:title>
      </cc:Work>
    </rdf:RDF>
  </metadata>
  <defs
     id="defs8" />
  <sodipodi:namedview
     pagecolor="#ffffff"
     bordercolor="#666666"
     borderopacity="1"
     objecttolerance="10"
     gridtolerance="10"
     guidetolerance="10"
     inkscape:pageopacity="0"
     inkscape:pageshadow="2"
     inkscape:window-width="1920"
     inkscape:window-height="1017"
     id="namedview6"
     showgrid="false"
     inkscape:zoom="18.782524"
     inkscape:cx="7.7196272"
     inkscape:cy="17.394587"
     inkscape:window-x="-8"
     inkscape:window-y="-8"
     inkscape:window-maximized="1"
     inkscape:current-layer="svg4"
     inkscape:document-rotation="0" />
  <path
     d="m 14.169864,2.6647742 c -4.5277554,0 -8.6098733,1.9325662 -10.4851524,4.882745 -1.9655658,0.061005 -3.54588807,1.6776815 -3.54588807,3.6578888 0,1.096862 0.49657679,2.466241 1.22009057,3.438654 v 14.862704 h 2.440181 V 13.728994 l -0.3264695,-0.3503 c -0.5270791,-0.569782 -0.893621,-1.601063 -0.893621,-2.173286 0,-0.673489 0.5466005,-1.2200907 1.2200905,-1.2200907 0.079305,0 0.1726046,0.013728 0.2811928,0.038124 L 5.0358665,10.252208 5.4600386,9.3633529 C 6.6630478,6.856071 10.244833,5.1049552 14.169864,5.1049552 h 3.660272 c 3.92503,0 7.506815,1.7511158 8.709825,4.2584017 l 0.424172,0.8888551 0.955579,-0.228767 c 0.108587,-0.024405 0.201887,-0.038124 0.281192,-0.038124 0.673491,0 1.220091,0.546602 1.220091,1.220091 0,0.572223 -0.366542,1.603504 -0.893621,2.173286 l -0.32647,0.3503 V 29.50677 h 2.440182 V 14.644062 c 0.723513,-0.972413 1.22009,-2.341792 1.22009,-3.438654 0,-1.9802073 -1.580322,-3.5968843 -3.545888,-3.6578888 C 26.440009,4.5973404 22.357891,2.6647742 17.830136,2.6647742 Z M 8.6794569,11.205408 a 1.2200906,1.830136 0 0 0 0,3.660272 1.2200906,1.830136 0 0 0 0,-3.660272 z m 14.6410851,0 a 1.2200906,1.830136 0 0 0 0,3.660272 1.2200906,1.830136 0 0 0 0,-3.660272 z m -7.320543,1.241538 c -1.116382,0 -2.23265,0.394394 -3.207503,1.181963 -4.3398612,3.511419 -4.4420061,3.598352 -4.7421481,3.85091 l -0.1310643,0.109617 c -1.0834405,0.906528 -1.6800075,2.106582 -1.6800075,3.376697 0,2.691519 2.1888422,4.880361 4.8803619,4.880361 1.827695,0 3.555343,-0.44028 4.880361,-1.227238 1.325019,0.786958 3.052667,1.227238 4.880362,1.227238 2.69152,0 4.880363,-2.188842 4.880363,-4.880361 0,-1.270115 -0.596567,-2.468949 -1.680008,-3.376697 l -0.131065,-0.109617 c -0.300142,-0.252558 -0.401067,-0.340653 -4.742148,-3.853293 -0.973632,-0.786349 -2.091121,-1.17958 -3.207504,-1.17958 z m 0,2.4235 c 0.56536,0 1.130529,0.21792 1.672859,0.655323 4.303259,3.482138 4.407539,3.569812 4.70402,3.819931 l 0.138215,0.116766 c 0.367247,0.307463 0.805449,0.816756 0.805449,1.503667 0,1.345759 -1.09442,2.44018 -2.440181,2.44018 -1.633701,0 -3.171129,-0.452825 -4.113039,-1.212942 L 16.04051,21.607157 c 0.09105,-1.060367 0.430726,-1.861115 1.17958,-1.861115 1.3482,0 2.440181,-0.245925 2.440181,-0.886471 0,-0.858945 -1.638582,-1.55371 -3.660272,-1.55371 -2.021689,0 -3.660271,0.694765 -3.660271,1.55371 0,0.640546 1.091981,0.886471 2.440181,0.886471 0.748854,0 1.088527,0.800748 1.17958,1.861115 l -0.726811,0.586214 c -0.94191,0.760117 -2.479339,1.212942 -4.11304,1.212942 -1.3457593,0 -2.4401811,-1.094421 -2.4401811,-2.44018 0,-0.685692 0.4381461,-1.196204 0.8078334,-1.503667 L 9.6255042,19.3457 c 0.2977025,-0.250119 0.3995978,-0.33663 4.7016368,-3.817549 0.54294,-0.438622 1.107499,-0.657705 1.672858,-0.657705 z"
     id="path2"
     style="fill:#61aeee;fill-opacity:1;stroke-width:1.22009" />
</svg>
